# xmcd
#
# Track frame offsets:
#	150
#	10452
#	23593
#	37457
#	50641
#	63339
#	80067
#	94272
#	106651
#	122433
#	138087
#	151432
#	167717
#	184247
#	196716
#	214259
#	229277
#	247353
#	265112
#	283688
#	304250
#	321862
#
# Disc length: 4591 seconds
#
# Revision: 1
# Processed by: cddbd v1.4PL0 Copyright (c) Steve Scherf et al.
# Submitted via: audiograbber 1.82.02
#
DISCID=4111ed16
DTITLE=Michel Sardou - MS cd 1
DYEAR=2003
DGENRE=Blues
TTITLE0=Les ricains
TTITLE1=Petit
TTITLE2=Les bals populaires
TTITLE3=Et mourir de plaisir
TTITLE4=J'habite en france
TTITLE5=Je t'aime
TTITLE6=Le rire du sergent
TTITLE7=Le surveillant général
TTITLE8=Un enfant
TTITLE9=La maladie d'amour
TTITLE10=Zombi Dupont
TTITLE11=Le curé
TTITLE12=Les vieux mariés
TTITLE13=Une fille aux yeux clair
TTITLE14=Le France
TTITLE15=La vieille
TTITLE16=J'accuse
TTITLE17=Je vais t'aimer
TTITLE18=La java de Broadway
TTITLE19=Dix ans plus tôt
TTITLE20=En chantant
TTITLE21=Je vole
EXTD=
EXTT0=
EXTT1=
EXTT2=
EXTT3=
EXTT4=
EXTT5=
EXTT6=
EXTT7=
EXTT8=
EXTT9=
EXTT10=
EXTT11=
EXTT12=
EXTT13=
EXTT14=
EXTT15=
EXTT16=
EXTT17=
EXTT18=
EXTT19=
EXTT20=
EXTT21=
PLAYORDER=
